<?xml version="1.0" encoding="UTF-8"?>
<svg id="Layer_1" data-name="Layer 1" xmlns="http://www.w3.org/2000/svg" viewBox="0 0 313.54 77.46">
  <g>
    <path d="M67.52,35.21c0-2.83-.23-4.9-.73-7.04h-32.34v12.78h18.98c-.38,3.18-2.45,7.96-7.04,11.18l-.06.43,10.23,7.92.71.07c6.51-6.01,10.26-14.85,10.26-25.34" style="fill: #4285f4; stroke-width: 0px;"/>
    <path d="M34.45,68.89c9.3,0,17.11-3.06,22.81-8.34l-10.87-8.42c-2.91,2.03-6.81,3.44-11.94,3.44-9.11,0-16.84-6.01-19.6-14.31l-.4.03-10.63,8.23-.14.39c5.66,11.25,17.3,18.98,30.77,18.98" style="fill: #34a853; stroke-width: 0px;"/>
    <path d="M14.85,41.26c-.73-2.14-1.15-4.44-1.15-6.81s.42-4.67,1.11-6.81l-.02-.46-10.77-8.36-.35.17c-2.33,4.67-3.67,9.91-3.67,15.46s1.34,10.79,3.67,15.46l11.18-8.65" style="fill: #fbbc05; stroke-width: 0px;"/>
    <path d="M34.45,13.32c6.47,0,10.83,2.79,13.32,5.13l9.72-9.49C51.52,3.41,43.75,0,34.45,0,20.97,0,9.34,7.73,3.67,18.98l11.14,8.65c2.79-8.31,10.53-14.31,19.64-14.31" style="fill: #eb4335; stroke-width: 0px;"/>
  </g>
  <text transform="translate(76.22 61.68)" style="fill: #000; font-family: Oswald-ExtraLight, Oswald; font-size: 55px; font-weight: 200; letter-spacing: .01em;"><tspan x="0" y="0">HODNOCENÍ</tspan></text>
</svg>